<?xml version="1.0" encoding="utf-8"?>
<!-- Generator: Adobe Illustrator 26.1.0, SVG Export Plug-In . SVG Version: 6.00 Build 0)  -->
<svg version="1.1" id="katman_1" xmlns="http://www.w3.org/2000/svg" xmlns:xlink="http://www.w3.org/1999/xlink" x="0px" y="0px"
	 viewBox="0 0 431 68" style="enable-background:new 0 0 431 68;" xml:space="preserve">
<g>
	<path d="M38.1,47.9l-1.6-24.6l-7.9,24.6h-4.6l-7.8-24.7l-1.4,24.7h-3.7l1.7-27.8h6.1l7.4,23.4L34,20.1h5.9l2.2,27.8H38.1z M73,40.5
		H61.9l-2.4,7.4h-4L64.9,20h5.2l9.4,27.8h-4.1L73,40.5z M72,37.3l-4.6-13.8l-4.5,13.8H72z M96.3,47.9c-1.5-0.6-3-1.4-4.2-2.4v-4.1
		c2.3,2.3,5.4,3.6,8.7,3.6c1.5,0.1,2.9-0.3,4.1-1.1c1-0.8,1.5-2,1.4-3.2c0-0.6-0.1-1.3-0.4-1.9c-0.4-0.6-1-1.1-1.5-1.5
		c-1-0.6-2.1-1.1-3.2-1.6l-2.6-1.1c-1.8-0.7-3.4-1.8-4.6-3.2c-1-1.3-1.5-2.9-1.5-4.5c0-1.4,0.3-2.7,1.1-3.9c0.8-1.2,1.8-2.2,3.2-2.9
		c1.5-0.7,3.2-1,4.8-1c1.6,0,3.2,0.3,4.6,0.8c1.2,0.4,2.3,1.1,3.2,2v4.1c-1-1-2.2-1.8-3.5-2.4c-1.3-0.6-2.8-0.8-4.2-0.8
		c-1.3-0.1-2.7,0.3-3.9,1c-0.9,0.7-1.3,1.8-1.3,2.9c0,0.7,0.2,1.3,0.5,2c0.4,0.6,0.9,1.1,1.5,1.5c0.8,0.5,1.7,1,2.7,1.4l2.8,1.3
		c1.3,0.6,2.7,1.3,3.8,2.2c0.9,0.7,1.6,1.5,2.2,2.5c0.4,1,0.6,2,0.6,3.1c0.1,1.5-0.4,3-1.1,4.4c-0.8,1.3-1.9,2.2-3.2,2.9
		c-1.5,0.7-3.2,1.1-4.9,1C99.4,48.7,97.8,48.4,96.3,47.9z M142.4,23.6H134v24.3h-3.9V23.6H122V20h20.3L142.4,23.6L142.4,23.6z
		 M173.7,44.4v3.5h-17.4V20h17.2v3.5h-13.3v7.9h12.4v3.4h-12.4v9.5H173.7z M204.1,47.9l-10.9-13.1v13.1h-3.8V20.1h10.7
		c1.5,0,3,0.3,4.4,1c1.3,0.6,2.3,1.6,3,2.9c0.7,1.3,1.1,2.7,1,4.1c0.1,1.5-0.3,2.9-1.1,4.1c-0.8,1.2-1.8,2.2-3.1,2.8
		c-1.5,0.7-3.1,1.1-4.8,1h-0.8l10.5,12L204.1,47.9L204.1,47.9z M193.2,33h5.6c1.6,0.1,3.1-0.3,4.4-1.3c1-0.9,1.5-2.2,1.5-3.5
		c0.1-1.3-0.5-2.5-1.5-3.4c-1.1-0.9-2.4-1.3-3.8-1.2h-6.1L193.2,33z M258,20l-7.4,27.8h-4.9l-6.2-24.3l-6.2,24.3h-4.9L221.3,20h4.1
		l5.4,23.6l6.1-23.6h5.2l6,23.6l5.8-23.6H258z M348.7,47.9l-10.9-13.1v13.1h-3.7V20.1h10.7c1.5,0,3,0.3,4.4,1
		c1.2,0.6,2.2,1.6,2.9,2.9c0.7,1.3,1.1,2.7,1,4.1c0,1.5-0.4,2.9-1.1,4.1c-0.8,1.2-1.8,2.2-3.1,2.8c-1.5,0.7-3.1,1-4.8,1h-0.8
		l10.5,12L348.7,47.9L348.7,47.9z M337.8,33h5.4c1.6,0.1,3.1-0.3,4.4-1.3c1-0.9,1.6-2.2,1.5-3.5c0.1-1.3-0.4-2.5-1.3-3.4
		c-1.1-0.9-2.4-1.3-3.8-1.2h-6.1L337.8,33z M384.4,47.9l-12-13.9v14h-3.9V20h3.9v12.5L384.3,20h5.2L376.6,33l13.1,15H384.4z
		 M405.7,47.9c-1.5-0.6-3-1.4-4.2-2.4v-4.1c2.3,2.3,5.4,3.6,8.7,3.6c1.5,0.1,2.9-0.3,4.1-1.1c1-0.8,1.5-2,1.4-3.2
		c0-0.6-0.1-1.3-0.4-1.9c-0.4-0.6-1-1.1-1.5-1.5c-1-0.6-2.1-1.1-3.2-1.6l-2.6-1.1c-1.8-0.7-3.4-1.8-4.6-3.2c-1-1.3-1.6-2.9-1.5-4.5
		c0-1.4,0.4-2.9,1.1-4.1c0.8-1.2,1.8-2.2,3.2-2.7c1.5-0.7,3.2-1,4.8-1c1.6,0,3.2,0.3,4.6,0.8c1.2,0.4,2.3,1.1,3.2,2v4.1
		c-1-1-2.2-1.8-3.5-2.4c-1.3-0.6-2.8-0.8-4.2-0.8c-1.3-0.1-2.7,0.3-3.9,1c-0.9,0.7-1.4,1.8-1.3,2.9c0,0.7,0.2,1.3,0.5,2
		c0.4,0.6,0.9,1.1,1.5,1.5c0.8,0.5,1.7,1,2.7,1.4l2.8,1.3c1.3,0.6,2.7,1.3,3.8,2.2c0.9,0.7,1.6,1.5,2.2,2.5c0.4,1,0.7,2,0.7,3.2
		c0,1.5-0.4,3-1.1,4.2c-0.8,1.3-1.9,2.2-3.2,2.9c-1.5,0.7-3.2,1.1-4.9,1C408.9,48.7,407.3,48.4,405.7,47.9z M318.1,58h-48V10h48
		L318.1,58L318.1,58z M273.9,54.1h40.3V13.8h-40.3V54.1z"/>
	<path d="M294.1,19.2c-8.1,0-14.7,6.6-14.7,14.7c0,8.1,6.6,14.7,14.7,14.7c8.1,0,14.7-6.6,14.7-14.7
		C308.8,25.9,302.2,19.2,294.1,19.2z M294.1,44.8c-6,0-10.9-4.9-10.9-10.9S288.1,23,294.1,23S305,27.9,305,33.9
		C305,39.9,300.2,44.9,294.1,44.8C294.1,44.9,294.1,44.9,294.1,44.8L294.1,44.8z"/>
</g>
</svg>
