<?xml version="1.0" encoding="utf-8"?>
<!-- Generator: Adobe Illustrator 26.0.3, SVG Export Plug-In . SVG Version: 6.00 Build 0)  -->
<svg version="1.0" id="katman_1" xmlns="http://www.w3.org/2000/svg" xmlns:xlink="http://www.w3.org/1999/xlink" x="0px" y="0px"
	 viewBox="0 0 800 600" style="enable-background:new 0 0 800 600;" xml:space="preserve">
<path d="M119.9,321.6l-2.5-38.8L105,321.6h-7.3l-12.3-39l-2.2,39h-5.8l2.7-43.9h9.7l11.7,37l11.9-37h9.3l3.4,43.9H119.9z M175,309.9
	h-17.6l-3.8,11.7h-6.3l14.9-44h8.2l14.9,43.9h-6.4L175,309.9z M173.3,304.9l-7.2-21.8l-7.1,21.8L173.3,304.9z M211.7,321.6
	c-2.4-0.9-4.7-2.2-6.6-3.8v-6.4c3.7,3.6,8.6,5.7,13.8,5.7c2.3,0.2,4.5-0.5,6.4-1.7c1.5-1.2,2.3-3.1,2.2-5c0-1-0.2-2.1-0.7-3
	c-0.6-1-1.5-1.7-2.4-2.3c-1.6-1-3.3-1.8-5-2.5l-4.1-1.8c-2.8-1.1-5.3-2.8-7.3-5c-1.6-2-2.4-4.5-2.4-7.1c0-2.2,0.5-4.3,1.7-6.2
	c1.2-1.9,2.9-3.5,5-4.5c2.4-1.1,5-1.6,7.6-1.5c2.5,0,5,0.4,7.3,1.3c1.9,0.7,3.6,1.7,5,3.1v6.5c-1.6-1.6-3.5-2.9-5.6-3.8
	c-2.1-0.9-4.4-1.3-6.6-1.3c-2.1-0.1-4.3,0.4-6.1,1.5c-1.4,1.1-2.1,2.8-2,4.5c0,1.1,0.3,2.1,0.8,3.1c0.6,0.9,1.4,1.7,2.3,2.3
	c1.3,0.8,2.7,1.6,4.2,2.2l4.4,2c2.1,0.9,4.2,2.1,6,3.4c1.4,1.1,2.6,2.4,3.4,4c0.6,1.5,0.9,3.2,0.9,4.9c0.1,2.4-0.6,4.8-1.8,6.9
	c-1.2,2-3,3.5-5.1,4.5c-2.4,1.1-5,1.7-7.7,1.6C216.6,322.9,214.1,322.4,211.7,321.6z M284.4,283.2h-13.2v38.3h-6.1v-38.3h-12.8v-5.6
	h32.1V283.2z M333.9,316v5.5h-27.5v-43.9h27.2v5.5h-21v12.5h19.6v5.4h-19.6V316H333.9z M381.9,321.6l-17.2-20.7v20.7h-6v-43.9h16.9
	c2.4,0,4.8,0.5,6.9,1.6c2,1,3.6,2.6,4.8,4.5c1.1,2,1.7,4.2,1.6,6.5c0.1,2.3-0.5,4.6-1.7,6.5c-1.2,1.9-2.9,3.4-4.9,4.4
	c-2.4,1.1-4.9,1.7-7.5,1.6h-1.2l16.5,18.9H381.9z M364.7,298h8.8c2.5,0.2,4.9-0.5,6.9-2c1.6-1.4,2.4-3.4,2.3-5.5
	c0.1-2-0.8-4-2.3-5.3c-1.7-1.4-3.8-2.1-6-1.9h-9.6L364.7,298z M466.9,277.6l-11.7,43.9h-7.7l-9.8-38.3l-9.8,38.3h-7.7L409,277.6h6.5
	l8.5,37.2l9.6-37.2h8.2l9.5,37.3l9.1-37.3H466.9z M610.1,321.6l-17.2-20.7v20.7H587v-43.9h16.9c2.4,0,4.8,0.5,6.9,1.6
	c1.9,1,3.5,2.6,4.6,4.5c1.1,2,1.7,4.2,1.6,6.5c0,2.3-0.6,4.6-1.8,6.5c-1.2,1.9-2.9,3.4-4.9,4.4c-2.3,1.1-4.9,1.6-7.5,1.6h-1.3
	l16.5,18.9H610.1z M592.9,298h8.6c2.5,0.2,4.9-0.5,6.9-2c1.6-1.4,2.5-3.4,2.3-5.5c0.1-2-0.7-3.9-2.1-5.3c-1.7-1.4-3.8-2.1-6-1.9H593
	L592.9,298z M666.4,321.6l-19-22v22.1h-6.1v-44.1h6.1v19.7l18.8-19.7h8.2L654.1,298l20.7,23.6H666.4z M700,321.6
	c-2.4-0.9-4.7-2.2-6.6-3.8v-6.4c3.7,3.6,8.6,5.7,13.8,5.7c2.3,0.2,4.5-0.5,6.4-1.7c1.5-1.2,2.3-3.1,2.2-5c0-1-0.2-2.1-0.7-3
	c-0.6-1-1.5-1.7-2.4-2.3c-1.6-1-3.3-1.8-5-2.5l-4.1-1.8c-2.8-1.1-5.3-2.8-7.3-5c-1.6-2-2.5-4.5-2.4-7.1c0-2.2,0.6-4.5,1.7-6.4
	c1.2-1.9,2.9-3.4,5-4.3c2.4-1.1,5-1.6,7.6-1.5c2.5,0,5,0.4,7.3,1.3c1.9,0.7,3.6,1.7,5,3.1v6.5c-1.6-1.6-3.5-2.9-5.6-3.8
	c-2.1-0.9-4.4-1.3-6.6-1.3c-2.1-0.1-4.3,0.4-6.1,1.5c-1.4,1.1-2.2,2.8-2.1,4.5c0,1.1,0.3,2.1,0.8,3.1c0.6,0.9,1.4,1.7,2.3,2.3
	c1.3,0.8,2.7,1.6,4.2,2.2l4.4,2c2.1,0.9,4.2,2.1,6,3.4c1.4,1.1,2.6,2.4,3.4,4c0.7,1.6,1.1,3.2,1.1,5c0,2.3-0.6,4.7-1.8,6.7
	c-1.2,2-3,3.5-5.1,4.5c-2.4,1.1-5,1.7-7.7,1.6C705.1,322.8,702.5,322.4,700,321.6z M561.8,337.5H486v-75.7h75.7V337.5z M492.1,331.4
	h63.6v-63.6h-63.6V331.4z"/>
<path d="M523.9,276.3c-12.8,0-23.2,10.4-23.2,23.2c0,12.8,10.4,23.2,23.2,23.2c12.8,0,23.2-10.4,23.2-23.2
	C547.1,286.8,536.7,276.3,523.9,276.3z M523.9,316.7c-9.5,0-17.2-7.7-17.2-17.2s7.7-17.2,17.2-17.2c9.5,0,17.2,7.7,17.2,17.2
	C541.1,309,533.5,316.8,523.9,316.7C523.9,316.8,523.9,316.8,523.9,316.7L523.9,316.7z"/>
</svg>
